<svg width="120" height="36" viewBox="0 0 120 36" fill="none" xmlns="http://www.w3.org/2000/svg">
    <g clip-path="url(#qqaq06y2ta)">
        <path d="M6.076 35.998c-.245 0-.483-.004-.726-.01a8.705 8.705 0 0 1-1.5-.154 4.257 4.257 0 0 1-1.329-.515 4.446 4.446 0 0 1-1.121-.957 5.053 5.053 0 0 1-.819-1.314 6.058 6.058 0 0 1-.436-1.56 13.653 13.653 0 0 1-.133-1.764c-.005-.199-.012-.86-.012-.86V7.124s.007-.651.012-.842c.006-.59.05-1.18.133-1.762A6.095 6.095 0 0 1 .58 2.956c.209-.487.484-.932.814-1.316.33-.388.71-.712 1.126-.962.417-.248.865-.42 1.326-.512C4.345.07 4.848.019 5.352.01L6.076 0H113.92l.732.012c.5.007.999.058 1.492.153a4.3 4.3 0 0 1 1.341.516c.832.503 1.51 1.3 1.937 2.277.209.489.354 1.012.43 1.552.083.587.13 1.18.139 1.776.003.267.003.553.003.838.006.353.006.689.006 1.027v19.697c0 .342 0 .675-.006 1.012 0 .306 0 .586-.003.875-.01.584-.056 1.167-.138 1.744a6.058 6.058 0 0 1-.433 1.572 5.17 5.17 0 0 1-.815 1.304c-.328.39-.707.714-1.123.962-.421.25-.873.425-1.338.517a8.613 8.613 0 0 1-1.5.154c-.235.006-.481.01-.72.01l-.87.002-106.978-.002z" fill="#000"/>
        <path d="M22.102 18.822c.01-.75.207-1.487.575-2.14a4.436 4.436 0 0 1 1.528-1.596 4.533 4.533 0 0 0-1.553-1.396 4.49 4.49 0 0 0-2.009-.546c-1.498-.16-2.95.904-3.714.904-.779 0-1.954-.889-3.22-.862a4.714 4.714 0 0 0-2.317.697 4.766 4.766 0 0 0-1.675 1.758c-1.725 3.013-.438 7.442 1.215 9.878.827 1.193 1.794 2.525 3.059 2.478 1.237-.052 1.7-.796 3.194-.796 1.48 0 1.913.796 3.204.766 1.328-.022 2.165-1.198 2.963-2.402a9.902 9.902 0 0 0 1.355-2.783 4.276 4.276 0 0 1-1.893-1.585 4.33 4.33 0 0 1-.712-2.375zM19.665 11.541a4.41 4.41 0 0 0 .994-3.141 4.411 4.411 0 0 0-2.862 1.494 4.182 4.182 0 0 0-1.02 3.025c.553.005 1.1-.115 1.6-.354s.94-.588 1.288-1.024zM31.619 22.076a.438.438 0 0 1 .273-.396.429.429 0 0 1 .467.1.437.437 0 0 1-.308.741.426.426 0 0 1-.402-.275.438.438 0 0 1-.03-.17zm.07 5.571v-4.69h.723v4.69h-.722zM33.593 24.108h.667v.562h.052a1.044 1.044 0 0 1 1.047-.63 1.133 1.133 0 0 1 .921.364 1.154 1.154 0 0 1 .294.953v2.29h-.693v-2.115c0-.57-.245-.852-.757-.852a.798.798 0 0 0-.623.254.811.811 0 0 0-.215.643v2.07h-.693v-3.539zM37.47 25.876c0-1.119.57-1.827 1.457-1.827a1.15 1.15 0 0 1 1.077.62h.051v-1.943h.693v4.921h-.664v-.56h-.055a1.224 1.224 0 0 1-1.102.619c-.892 0-1.456-.709-1.456-1.83zm.716 0c0 .75.351 1.202.938 1.202.584 0 .944-.458.944-1.2 0-.737-.364-1.201-.944-1.201-.583 0-.938.454-.938 1.199zM41.794 23.061a.456.456 0 0 1 .258-.436.445.445 0 0 1 .628.311.456.456 0 0 1-.186.473.445.445 0 0 1-.252.078.423.423 0 0 1-.413-.257.432.432 0 0 1-.035-.169zm.103 1.047h.69v3.54h-.69v-3.54zM43.704 24.108h.667v.543h.051a.946.946 0 0 1 .947-.602 1.47 1.47 0 0 1 .31.03v.688a1.912 1.912 0 0 0-.387-.042.817.817 0 0 0-.828.496.835.835 0 0 0-.067.336v2.09h-.693v-3.539zM46.406 23.061a.455.455 0 0 1 .258-.436.446.446 0 0 1 .627.311.456.456 0 0 1-.185.473.445.445 0 0 1-.252.078.423.423 0 0 1-.413-.257.434.434 0 0 1-.035-.169zm.102 1.047h.69v3.54h-.69v-3.54zM48.316 24.108h.667v.562h.051c.088-.202.236-.37.424-.484.188-.113.406-.164.624-.146a1.132 1.132 0 0 1 .92.364 1.154 1.154 0 0 1 .294.953v2.29h-.692v-2.115c0-.57-.245-.852-.758-.852a.798.798 0 0 0-.623.254.813.813 0 0 0-.215.643v2.07h-.692v-3.539zM35.766 15.887h-3.032l-.727 2.168h-1.284l2.87-8.021h1.335l2.871 8.021h-1.306l-.727-2.168zm-2.718-1h2.404l-1.185-3.52h-.033l-1.186 3.52zM44 15.131c0 1.818-.964 2.985-2.42 2.985a1.952 1.952 0 0 1-1.057-.247 1.974 1.974 0 0 1-.767-.776h-.027v2.897h-1.19v-7.783h1.152v.973h.022a2.044 2.044 0 0 1 1.846-1.034c1.472 0 2.442 1.173 2.442 2.985zm-1.223 0c0-1.184-.606-1.962-1.532-1.962-.91 0-1.521.795-1.521 1.962 0 1.179.612 1.968 1.52 1.968.927 0 1.533-.773 1.533-1.968zM50.382 15.131c0 1.818-.964 2.985-2.42 2.985a1.952 1.952 0 0 1-1.057-.247 1.974 1.974 0 0 1-.767-.776h-.027v2.897h-1.19v-7.783h1.152v.973h.022a2.043 2.043 0 0 1 1.846-1.034c1.472 0 2.441 1.173 2.441 2.985zm-1.223 0c0-1.184-.606-1.962-1.532-1.962-.91 0-1.521.795-1.521 1.962 0 1.179.611 1.968 1.52 1.968.927 0 1.533-.773 1.533-1.968zM54.6 15.82c.088.796.855 1.318 1.902 1.318 1.003 0 1.725-.522 1.725-1.24 0-.622-.436-.995-1.466-1.25l-1.031-.251c-1.46-.356-2.138-1.045-2.138-2.162 0-1.384 1.195-2.335 2.893-2.335 1.681 0 2.833.95 2.872 2.335h-1.202c-.072-.8-.728-1.284-1.687-1.284-.958 0-1.614.489-1.614 1.2 0 .567.419.901 1.444 1.157l.876.217c1.632.389 2.31 1.05 2.31 2.223 0 1.501-1.185 2.44-3.07 2.44-1.764 0-2.955-.917-3.032-2.368H54.6zM62.053 10.823v1.384h1.102v.95h-1.102v3.225c0 .5.22.734.705.734.13-.003.262-.012.392-.028v.945c-.218.041-.44.06-.662.056-1.173 0-1.631-.445-1.631-1.58v-3.352h-.843v-.95h.843v-1.384h1.196zM63.794 15.131c0-1.84 1.074-2.996 2.75-2.996 1.681 0 2.75 1.156 2.75 2.996 0 1.845-1.063 2.997-2.75 2.997-1.686 0-2.75-1.152-2.75-2.997zm4.288 0c0-1.262-.574-2.007-1.538-2.007-.965 0-1.537.75-1.537 2.007 0 1.267.572 2.007 1.537 2.007.964 0 1.538-.74 1.538-2.007zM70.276 12.207h1.135v.995h.028c.077-.31.257-.585.511-.778.254-.192.566-.29.883-.278.138 0 .274.014.408.044v1.123a1.648 1.648 0 0 0-.535-.072 1.19 1.19 0 0 0-.927.385 1.212 1.212 0 0 0-.313.96v3.47h-1.19v-5.85zM78.729 16.337c-.16 1.062-1.186 1.79-2.497 1.79-1.687 0-2.734-1.14-2.734-2.968 0-1.835 1.053-3.024 2.684-3.024 1.604 0 2.613 1.111 2.613 2.885v.41H74.7v.073a1.534 1.534 0 0 0 .409 1.184 1.51 1.51 0 0 0 1.15.473c.282.026.564-.04.805-.187a1.32 1.32 0 0 0 .535-.636h1.13zm-4.024-1.745h2.9a1.418 1.418 0 0 0-.39-1.056 1.395 1.395 0 0 0-1.033-.428 1.456 1.456 0 0 0-1.045.431 1.482 1.482 0 0 0-.432 1.053zM79.594 12.969l.65-2.935h1.158l-.788 2.935h-1.02zM81.35 15.131c0-1.806.986-2.985 2.425-2.985.369-.019.735.068 1.057.251.322.183.586.455.762.783h.022v-3.146h1.196v8.021h-1.158v-.994h-.022a1.987 1.987 0 0 1-.77.799c-.328.187-.7.276-1.076.256-1.45 0-2.436-1.178-2.436-2.985zm1.218 0c0 1.2.606 1.968 1.532 1.968.915 0 1.527-.779 1.527-1.968 0-1.179-.612-1.962-1.527-1.962-.926 0-1.532.773-1.532 1.962zM87.86 16.393c0-1.023.778-1.64 2.155-1.724l1.588-.088v-.445c0-.65-.424-1.018-1.146-1.018a1.1 1.1 0 0 0-.763.18c-.225.151-.386.38-.455.643h-1.114c.034-1.056 1.009-1.806 2.365-1.806 1.383 0 2.298.761 2.298 1.912v4.008h-1.14v-.962h-.028a2.082 2.082 0 0 1-.771.784 2.06 2.06 0 0 1-1.06.278 1.744 1.744 0 0 1-1.35-.45 1.772 1.772 0 0 1-.578-1.312zm3.743-.528v-.45l-1.427.088c-.712.045-1.114.356-1.114.856 0 .512.42.846 1.059.846a1.377 1.377 0 0 0 1.02-.355 1.401 1.401 0 0 0 .462-.985zM94 12.207h1.136v.996h.028c.16-.343.422-.628.748-.818a1.84 1.84 0 0 1 1.076-.244c1.279 0 2.012.828 2.012 2.167v3.747h-1.196v-3.513c0-.878-.403-1.367-1.24-1.367a1.337 1.337 0 0 0-1.028.44 1.361 1.361 0 0 0-.345 1.072v3.368h-1.19v-5.848z" fill="#fff"/>
    </g>
    <defs>
        <clipPath id="qqaq06y2ta">
            <path fill="#fff" d="M0 0h120v36H0z"/>
        </clipPath>
    </defs>
</svg>
