<svg width="120" height="36" viewBox="0 0 120 36" fill="none" xmlns="http://www.w3.org/2000/svg">
    <path d="M6.807 36h-.802c-.51-.025-1.094-.05-1.678-.15a5.202 5.202 0 0 1-1.483-.502c-.462-.251-.9-.552-1.264-.954a4.992 4.992 0 0 1-.924-1.304c-.243-.477-.389-.979-.486-1.53a9.249 9.249 0 0 1-.146-1.731c0-.201-.024-.853-.024-.853V7.024s0-.652.024-.827c0-.477.049-1.13.146-1.731A6.088 6.088 0 0 1 .656 2.91c.244-.477.535-.928.924-1.304A5.295 5.295 0 0 1 2.844.652c.462-.25.949-.401 1.483-.501C4.935.05 5.543 0 6.005 0h107.99c.462 0 1.07.05 1.678.15.534.1 1.021.276 1.507.502.462.251.875.552 1.264.954.365.376.681.802.924 1.304.243.477.389.978.486 1.53.097.577.146 1.18.146 1.757v23.606c-.024.552-.049 1.154-.146 1.732-.097.576-.243 1.078-.486 1.555a4.847 4.847 0 0 1-.924 1.28 5.3 5.3 0 0 1-1.264.953c-.462.25-.948.401-1.507.501-.584.1-1.167.126-1.678.15h-1.775L6.807 36z" fill="#000"/>
    <path fill-rule="evenodd" clip-rule="evenodd" d="M21.823 7.2h-9.446C7.916 7.2 6.3 8.84 6.3 13.277v9.446c0 4.461 1.639 6.077 6.077 6.077h9.446c4.46 0 6.077-1.639 6.077-6.077v-9.446C27.923 8.84 26.284 7.2 21.823 7.2z" fill="#C8102E"/>
    <path d="M10.579 18.011h.569v2.823h-.569v-1.139H9.282v1.139h-.57V18.01h.57v1.138h1.297v-1.138zm3.232 1.616c0 .455-.228.706-.637.706-.41 0-.638-.25-.638-.728V18.01h-.569v1.616c0 .797.433 1.252 1.207 1.252s1.229-.455 1.229-1.274V18.01h-.57v1.616h-.022zm6.623.319-.637-1.935h-.478l-.637 1.935-.615-1.935h-.614l.978 2.823h.478l.638-1.867.637 1.867h.478l.979-2.823h-.592l-.615 1.935zm2.254-.319h1.047v-.523h-1.047v-.57h1.525v-.523H22.14v2.823h2.14v-.524h-1.57v-.683h-.023zm2.253 1.207h.569V18.01h-.57v2.823zm-9.423-.592-.25.591h-.592l1.229-2.822h.5l1.23 2.823h-.592l-.25-.592h-1.275zm.205-.501h.865l-.433-1.001-.432 1.001zM17.111 14.415a3.604 3.604 0 0 1-3.596-3.596h.5a3.099 3.099 0 0 0 3.096 3.095 3.099 3.099 0 0 0 3.096-3.095h.5a3.604 3.604 0 0 1-3.596 3.596zM41.56 15.053h-3.476l-.849 2.31h-1.52l3.396-8.65h1.442l3.477 8.67h-1.6l-.87-2.33zm-3.041-1.166h2.587l-.928-2.488c-.118-.336-.257-.731-.375-1.146l-.356 1.126-.928 2.508zM44.642 12.505c0-.474-.02-1.007-.04-1.58h1.383c.06.276.08.533.099.81.573-.632 1.225-.948 1.975-.948.435 0 .83.098 1.205.316.375.217.672.553.889 1.027.217.474.336 1.066.336 1.777 0 .751-.139 1.403-.395 1.936-.257.534-.613.948-1.087 1.205-.454.277-.987.415-1.6.415-.434 0-.869-.08-1.303-.217v2.666l-1.482.119v-7.526h.02zm3.891 3.299c.297-.395.454-.988.454-1.778 0-.73-.118-1.244-.375-1.56-.257-.316-.573-.494-.987-.494-.297 0-.553.059-.79.197a2.933 2.933 0 0 0-.692.553v3.457c.139.079.316.138.514.178.197.04.395.059.573.059.553 0 .987-.198 1.303-.612zM51.378 12.505c0-.474-.02-1.007-.04-1.58h1.383c.059.276.079.533.099.81.572-.632 1.224-.948 1.975-.948.434 0 .83.098 1.205.316.375.217.671.553.888 1.027.218.474.336 1.066.336 1.777 0 .751-.138 1.403-.395 1.936-.257.534-.612.948-1.086 1.205-.455.277-.988.415-1.6.415-.435 0-.87-.08-1.304-.217v2.666l-1.481.119v-7.526h.02zm3.89 3.299c.297-.395.455-.988.455-1.778 0-.73-.118-1.244-.375-1.56-.257-.316-.573-.494-.988-.494-.296 0-.553.059-.79.197a2.93 2.93 0 0 0-.691.553v3.457c.138.079.316.138.513.178.198.04.395.059.573.059.553 0 1.007-.198 1.304-.612zM59.93 16.969a3.51 3.51 0 0 1-1.461-1.521c-.336-.652-.514-1.442-.514-2.33 0-.969.198-1.798.593-2.47.395-.671.928-1.185 1.62-1.52.67-.336 1.441-.514 2.29-.514.494 0 .968.059 1.423.158.454.118.869.257 1.264.454l-.376 1.146c-.79-.376-1.54-.553-2.251-.553-.593 0-1.126.138-1.58.395-.455.256-.81.632-1.047 1.126-.257.493-.375 1.106-.375 1.797 0 .612.098 1.165.296 1.64.197.474.494.849.908 1.145.415.277.948.415 1.58.415.297 0 .573-.02.87-.08a4.85 4.85 0 0 0 .81-.216v-1.758h-1.995v-1.146h3.436v3.654a6.928 6.928 0 0 1-1.56.534 7.672 7.672 0 0 1-1.62.177c-.908 0-1.659-.177-2.31-.533zM70.616 17.384a5.296 5.296 0 0 1-.099-.85 2.893 2.893 0 0 1-.888.692c-.356.197-.77.276-1.245.276-.375 0-.71-.079-1.007-.217a1.662 1.662 0 0 1-.73-.652 2.039 2.039 0 0 1-.277-1.067c0-.632.217-1.125.671-1.5.454-.376 1.205-.554 2.252-.554.395 0 .79.02 1.165.08v-.139c0-.573-.118-.968-.355-1.205-.237-.237-.593-.355-1.047-.355-.316 0-.652.039-1.007.138-.356.099-.672.197-.949.336l-.237-1.067a5.447 5.447 0 0 1 1.047-.336 6.13 6.13 0 0 1 1.363-.158c.553 0 1.027.08 1.422.257.395.178.692.454.909.869.217.415.336.968.336 1.66v2.567c0 .277.02.672.04 1.205h-1.364v.02zm-.869-1.205c.316-.138.553-.336.75-.553V14.44c-.394-.04-.73-.06-.987-.06-.612 0-1.027.1-1.264.297-.237.197-.355.454-.355.79 0 .316.078.553.256.71.178.159.395.238.692.238.296 0 .592-.08.908-.237zM73.105 15.823V8.22l1.462-.119v7.486c0 .277.04.474.138.593.099.118.237.178.454.178.099 0 .217-.02.395-.06l.178 1.067c-.138.06-.316.099-.514.138a2.97 2.97 0 0 1-.572.06c-1.028-.06-1.541-.613-1.541-1.739zM76.779 15.823V8.22l1.462-.119v7.486c0 .277.04.474.138.593.099.118.237.178.454.178.099 0 .218-.02.395-.06l.178 1.067c-.138.06-.316.099-.514.138-.197.04-.395.06-.572.06-1.027-.06-1.541-.613-1.541-1.739zM85.45 14.342h-4.227c.06 1.343.711 2.034 1.936 2.034.296 0 .612-.039.928-.118.316-.079.613-.178.909-.296l.316 1.007c-.731.356-1.54.533-2.43.533-.69 0-1.264-.138-1.738-.395a2.455 2.455 0 0 1-1.066-1.125c-.237-.494-.356-1.067-.356-1.758 0-.712.119-1.324.375-1.837.257-.514.593-.91 1.047-1.186.454-.276.968-.414 1.56-.414.613 0 1.127.138 1.522.434.414.277.71.672.908 1.146.198.474.296 1.007.296 1.58v.395h.02zm-1.442-.928c-.02-.514-.158-.909-.395-1.166a1.193 1.193 0 0 0-.928-.395c-.375 0-.692.139-.928.395-.257.257-.415.652-.494 1.146h2.745v.02zM86.556 12.544c0-.355-.02-.889-.04-1.62H87.9c.02.178.04.396.06.652.02.257.04.455.04.613.177-.277.335-.514.513-.712.158-.197.355-.355.573-.473a1.56 1.56 0 0 1 .75-.178c.237 0 .415.02.593.079l-.178 1.284a1.729 1.729 0 0 0-.474-.06c-.356 0-.652.08-.909.257-.257.178-.533.474-.83.87v4.147h-1.46v-4.859h-.02zM91.257 20.03a2.576 2.576 0 0 1-.533-.138l.277-1.067c.098.02.217.06.375.08.158.019.296.039.434.039.652 0 1.146-.415 1.462-1.264l.099-.237L91 10.944h1.58l1.205 3.634c.197.613.316 1.107.375 1.423.118-.474.237-.929.395-1.403l1.205-3.674h1.481l-2.37 6.538c-.217.613-.474 1.126-.73 1.502a2.835 2.835 0 0 1-.91.849c-.355.178-.77.276-1.283.276l-.692-.059zM37.63 22.242h.77v3.812h1.857l-.06.652H37.65v-4.464h-.02zM40.948 22.242h2.627l-.079.632H41.72V24.1h1.679v.593h-1.68v1.362h1.877l-.059.632h-2.588v-4.444zM46.44 22.242h.77v2.252l.415-.533 1.284-1.719h.869l-1.541 1.975 1.679 2.509h-.87l-1.303-1.975-.533.572v1.403h-.77v-4.484zM50.489 22.242h2.627l-.08.632H51.26V24.1h1.68v.593h-1.68v1.362h1.877l-.06.632H50.49v-4.444zM56.296 26.37c-.237.237-.553.356-.948.395l-.06.158c.198.04.356.119.475.198a.475.475 0 0 1 .158.375.562.562 0 0 1-.218.455c-.138.098-.355.157-.612.157s-.494-.059-.711-.177l.138-.356c.1.04.198.08.277.099.099.02.178.04.257.04.098 0 .197-.02.256-.06.06-.04.1-.099.1-.158 0-.099-.06-.158-.159-.197a2.874 2.874 0 0 0-.513-.119l.158-.415c-.198-.02-.415-.04-.613-.098a4.564 4.564 0 0 1-.553-.198l.237-.612c.178.079.356.158.573.217.217.06.395.079.573.079.257 0 .434-.06.573-.178a.546.546 0 0 0 .197-.454.552.552 0 0 0-.118-.356.876.876 0 0 0-.297-.237c-.118-.059-.296-.158-.533-.256a4.027 4.027 0 0 1-.593-.316 1.027 1.027 0 0 1-.375-.396 1.002 1.002 0 0 1-.138-.553c0-.256.06-.474.178-.651.118-.178.296-.336.513-.435.218-.099.474-.158.77-.158.218 0 .435.02.672.08.218.058.395.118.553.197l-.158.632c-.375-.178-.73-.277-1.047-.277-.217 0-.395.04-.533.119-.138.079-.197.217-.197.395 0 .118.04.217.098.296.06.079.158.158.297.237.138.079.316.158.572.277.237.118.455.217.613.335.158.119.276.237.355.395.08.158.139.336.139.573-.02.395-.139.711-.356.948zM57.481 22.242h2.627l-.06.632h-1.797v1.245h1.68v.592h-1.68v1.995h-.77v-4.464zM60.878 22.242h2.627l-.079.632H61.65V24.1h1.679v.593h-1.68v1.362h1.877l-.06.632h-2.587v-4.444zM64.394 22.242h1.462c.474 0 .889.08 1.244.237.336.158.613.395.79.711.178.316.277.692.277 1.146 0 .454-.099.869-.276 1.225a2.142 2.142 0 0 1-.83.849c-.356.197-.77.296-1.264.296h-1.403v-4.464zm1.363 3.872c.356 0 .652-.08.89-.218.236-.158.434-.355.552-.612.119-.257.178-.573.178-.909 0-.493-.138-.869-.395-1.125-.257-.257-.652-.376-1.185-.376h-.632v3.26h.592v-.02zM69.095 21.748a.448.448 0 0 1-.118-.316c0-.118.04-.237.118-.316a.449.449 0 0 1 .316-.118c.139 0 .237.04.316.118.08.08.139.198.139.316 0 .08-.02.158-.06.237a.601.601 0 0 1-.158.158.421.421 0 0 1-.237.06.577.577 0 0 1-.316-.139zm-.059.494h.77v4.464h-.77v-4.464zM36.068 21.748a.449.449 0 0 1-.119-.316c0-.118.04-.237.119-.316a.449.449 0 0 1 .316-.118c.138 0 .237.04.316.118a.466.466 0 0 1 .138.316c0 .08-.02.158-.06.237a.602.602 0 0 1-.157.158.421.421 0 0 1-.237.06.577.577 0 0 1-.316-.139zm-.06.494h.77v4.464h-.77v-4.464zM70.952 22.242h.889l2.212 3.457c-.02-.336-.02-.632-.02-.909v-2.548h.712v4.464h-.85l-2.252-3.516c.02.395.04.75.04 1.067v2.45h-.711v-4.465h-.02z" fill="#fff"/>
</svg>
