<svg width="120" height="36" viewBox="0 0 120 36" fill="none" xmlns="http://www.w3.org/2000/svg">
    <path d="M115.556 36H4.444C2 36 0 33.975 0 31.5v-27C0 2.025 2 0 4.444 0h111.112C118 0 120 2.025 120 4.5v27c0 2.475-2 4.5-4.444 4.5z" fill="#000"/>
    <path d="M54.378 11.33c-1.676 0-3.035 1.225-3.035 2.923 0 1.681 1.367 2.923 3.035 2.923 1.676 0 3.035-1.242 3.035-2.923.009-1.698-1.359-2.923-3.035-2.923zm0 4.69c-.92 0-1.709-.73-1.709-1.767 0-1.053.79-1.768 1.71-1.768.919 0 1.708.723 1.708 1.768 0 1.037-.79 1.768-1.709 1.768zm-6.624-4.69c-1.676 0-3.035 1.225-3.035 2.923 0 1.681 1.367 2.923 3.035 2.923 1.676 0 3.035-1.242 3.035-2.923.008-1.698-1.359-2.923-3.035-2.923zm0 4.69c-.92 0-1.709-.73-1.709-1.767 0-1.053.79-1.768 1.709-1.768.92 0 1.709.723 1.709 1.768 0 1.037-.79 1.768-1.709 1.768zm-7.877-3.795v1.242h3.068c-.09.7-.334 1.202-.7 1.563-.448.433-1.148.904-2.368.904-1.888 0-3.37-1.47-3.37-3.3 0-1.83 1.482-3.3 3.37-3.3 1.017 0 1.766.385 2.31.888l.904-.873c-.765-.707-1.79-1.249-3.222-1.249-2.588 0-4.769 2.035-4.769 4.534 0 2.499 2.18 4.534 4.769 4.534 1.4 0 2.45-.44 3.28-1.273.845-.817 1.114-1.972 1.114-2.9 0-.29-.024-.55-.065-.777h-4.321v.007zm32.225.967c-.252-.652-1.017-1.862-2.588-1.862-1.562 0-2.856 1.186-2.856 2.923 0 1.634 1.285 2.923 3.003 2.923a3.035 3.035 0 0 0 2.522-1.297l-1.033-.66c-.342.487-.814.81-1.49.81-.675 0-1.155-.3-1.464-.889l4.044-1.618-.138-.33zm-4.126.974a1.626 1.626 0 0 1 1.579-1.705c.529 0 .976.252 1.123.62l-2.702 1.085zm-3.287 2.829h1.326V8.407h-1.326v8.588zm-2.173-5.013h-.05c-.3-.346-.87-.652-1.594-.652-1.514 0-2.897 1.28-2.897 2.93 0 1.635 1.383 2.908 2.897 2.908.724 0 1.294-.307 1.595-.66h.049v.424c0 1.116-.619 1.713-1.62 1.713-.813 0-1.318-.566-1.521-1.037l-1.156.463a2.879 2.879 0 0 0 2.685 1.73c1.563 0 2.873-.889 2.873-3.042V11.51h-1.261v.472zm-1.53 4.039c-.92 0-1.685-.739-1.685-1.76 0-1.03.765-1.784 1.685-1.784.903 0 1.62.754 1.62 1.784 0 1.021-.709 1.76-1.62 1.76zm17.35-7.614h-3.183v8.588h1.327v-3.253h1.855c1.473 0 2.914-1.03 2.914-2.664 0-1.634-1.449-2.671-2.914-2.671zm.032 4.14H76.48V9.601h1.888c.993 0 1.554.793 1.554 1.47 0 .667-.561 1.476-1.554 1.476zm8.203-1.233c-.96 0-1.953.409-2.368 1.312l1.18.472c.252-.472.724-.63 1.212-.63.684 0 1.383.402 1.4 1.109v.086a3.027 3.027 0 0 0-1.384-.33c-1.27 0-2.563.676-2.563 1.933 0 1.147 1.042 1.886 2.205 1.886.895 0 1.384-.385 1.693-.84h.049v.66h1.277v-3.293c-.008-1.517-1.18-2.365-2.701-2.365zm-.163 4.707c-.431 0-1.042-.213-1.042-.731 0-.66.757-.92 1.408-.92.586 0 .855.118 1.213.291-.106.794-.814 1.36-1.58 1.36zm7.527-4.519-1.522 3.725h-.048l-1.58-3.725h-1.431l2.368 5.202-1.351 2.892h1.383l3.646-8.094h-1.465zm-11.954 5.493h1.326V8.407h-1.326v8.588z" fill="#fff"/>
    <path d="M11.174 8.787c-.214.23-.34.584-.34 1.035v16.356c0 .459.126.813.34 1.035l.052.052 9.161-9.154v-.222l-9.16-9.154-.053.052z" fill="url(#439ctb3joa)"/>
    <path d="m23.441 21.165-3.053-3.054v-.222l3.053-3.054.067.037 3.616 2.056c1.035.584 1.035 1.545 0 2.137l-3.616 2.055-.067.045z" fill="url(#d7b8gvm2cb)"/>
    <path d="M23.508 21.128 20.388 18l-9.214 9.213c.34.362.902.407 1.538.044l10.796-6.13z" fill="url(#jx9m7ke13c)"/>
    <path d="M23.508 14.88 12.705 8.743c-.636-.363-1.198-.318-1.538.044L20.387 18l3.12-3.12z" fill="url(#441x69xnwd)"/>
    <path opacity=".2" d="m23.441 21.054-10.736 6.1c-.599.34-1.139.318-1.479.008l-.052.052.052.051c.348.31.88.333 1.479-.007l10.803-6.137-.067-.067z" fill="#000"/>
    <path opacity=".12" d="M11.174 27.11c-.214-.23-.34-.584-.34-1.035v.11c0 .46.126.814.34 1.036l.052-.052-.052-.06zM27.123 18.961l-3.69 2.093.067.066 3.616-2.055c.518-.296.776-.68.776-1.065-.037.348-.295.695-.768.961z" fill="#000"/>
    <path opacity=".25" d="m12.705 8.846 14.418 8.193c.466.266.732.606.777.96 0-.383-.259-.775-.776-1.064L12.704 8.743c-1.035-.585-1.878-.097-1.878 1.086v.111c0-1.19.85-1.678 1.878-1.094z" fill="#fff"/>
    <path d="M35.77 24.523h-.586V22.96h.578v1.563h.008zM36.804 27.919V22.96h1.515c.757 0 1.368.228 1.824.692.456.456.684 1.059.684 1.791 0 .733-.228 1.328-.684 1.792-.456.456-1.067.692-1.824.692h-1.515v-.008zm.636-.61h.879c.57 0 1.026-.164 1.36-.49.334-.325.505-.79.505-1.376 0-.586-.171-1.042-.505-1.376-.334-.334-.79-.496-1.36-.496h-.88v3.737zM44.605 23.57H42.35v1.572h2.035v.595H42.35v1.571h2.255v.61h-2.89V22.96h2.89v.61zM45.517 27.919V22.96h.773l2.41 3.851h.025l-.024-.952V22.96h.635v4.959h-.668l-2.516-4.039h-.024l.024.953v3.086h-.635zM51.445 27.919l1.872-4.959h.717l1.865 4.959h-.709l-.48-1.344h-2.085l-.488 1.344h-.692zm1.4-1.938h1.645l-.806-2.24h-.025l-.814 2.24zM56.542 27.919V22.96h.635v4.348h2.15v.61h-2.785zM60.019 27.919V22.96h.635v4.959h-.635zM61.794 27.919V22.96h.773l2.41 3.851h.025l-.024-.952V22.96h.635v4.959h-.668l-2.516-4.039h-.025l.025.953v3.086h-.635z" fill="#fff" stroke="#fff" stroke-width=".2" stroke-miterlimit="10"/>
    <defs>
        <linearGradient id="439ctb3joa" x1="19.574" y1="9.652" x2="7.165" y2="22.061" gradientUnits="userSpaceOnUse">
            <stop stop-color="#00A0FF"/>
            <stop offset=".007" stop-color="#00A1FF"/>
            <stop offset=".26" stop-color="#00BEFF"/>
            <stop offset=".512" stop-color="#00D2FF"/>
            <stop offset=".76" stop-color="#00DFFF"/>
            <stop offset="1" stop-color="#00E3FF"/>
        </linearGradient>
        <linearGradient id="d7b8gvm2cb" x1="28.472" y1="18.001" x2="10.581" y2="18.001" gradientUnits="userSpaceOnUse">
            <stop stop-color="#FFE000"/>
            <stop offset=".409" stop-color="#FFBD00"/>
            <stop offset=".775" stop-color="orange"/>
            <stop offset="1" stop-color="#FF9C00"/>
        </linearGradient>
        <linearGradient id="jx9m7ke13c" x1="21.812" y1="19.698" x2="4.984" y2="36.526" gradientUnits="userSpaceOnUse">
            <stop stop-color="#FF3A44"/>
            <stop offset="1" stop-color="#C31162"/>
        </linearGradient>
        <linearGradient id="441x69xnwd" x1="8.851" y1="3.342" x2="16.365" y2="10.857" gradientUnits="userSpaceOnUse">
            <stop stop-color="#32A071"/>
            <stop offset=".069" stop-color="#2DA771"/>
            <stop offset=".476" stop-color="#15CF74"/>
            <stop offset=".801" stop-color="#06E775"/>
            <stop offset="1" stop-color="#00F076"/>
        </linearGradient>
    </defs>
</svg>
