<svg width="159" height="40" viewBox="0 0 159 40" fill="none" xmlns="http://www.w3.org/2000/svg">
    <path d="m34.873 31.642-3.163 3.162 3.562 3.562c.86.86 2.273.86 3.163 0 .86-.86.86-2.272 0-3.163l-3.562-3.56z" fill="#fff"/>
    <path d="m28.27 31.335-.645-.645a13.18 13.18 0 0 1-7.586 2.395c-7.248 0-13.144-5.864-13.144-13.14 0-1.198.153-2.334.46-3.439 1.536-5.526 6.634-9.64 12.684-9.64 7.248 0 13.144 5.864 13.144 13.14a13.34 13.34 0 0 1-.337 2.947 13.216 13.216 0 0 1-2.089 4.636l4.085 4.084c7.493-8.29 6.971-16.61-1.536-24.9-8.814-9.026-17.69-9.026-26.534-.03-9.03 8.842-9.03 17.653 0 26.496 7.954 8.074 15.908 8.934 23.862 2.486.369-.276.707-.583 1.075-.92L28.3 31.395l-.03-.061z" fill="#fff"/>
    <path d="M14.235 18.563a11.648 11.648 0 0 1 2.088-2.61c.737-.675 1.505-1.166 2.365-1.596.46-.245.675-.829.46-1.32-.215-.46-.767-.706-1.259-.46-1.044.49-1.965 1.135-2.825 1.903-.983.86-1.812 1.934-2.488 3.1a.993.993 0 0 0 .338 1.352c.123.092.276.123.43.153a.996.996 0 0 0 .89-.522zM13.835 27.068c.338.43 1.444 1.565 3.41 1.75 2.364.214 4.974-1.044 7.77-3.777 2.794-2.732 4.145-5.311 3.992-7.675-.123-1.965-1.26-3.101-1.659-3.439l-.491-.522c-.921-.92-1.75-.276-2.55.768l-.49.614c-.799 1.044-1.26 2.088-.338 3.009l.553.552c.399.4 2.18 1.105-1.198 4.39-3.378 3.347-4.023 1.536-4.423 1.137l-.552-.553c-.922-.921-1.966-.491-3.04.276l-.646.46c-1.075.768-1.75 1.597-.829 2.518l.491.492zM48.558 27.43a.755.755 0 0 1-.43-.676c0-.337.338-.706.737-.706.154 0 .246.031.338.092a6.804 6.804 0 0 0 3.808 1.167c2.365 0 3.9-1.32 3.9-3.807v-1.259c-.92 1.259-2.241 2.272-4.207 2.272-2.58 0-5.037-1.934-5.037-5.035v-.03c0-3.132 2.488-5.066 5.037-5.066 2.027 0 3.317.982 4.208 2.149v-1.228c0-.43.337-.799.798-.799.46 0 .798.369.798.799v8.166c0 1.658-.49 2.917-1.382 3.807-.951.952-2.395 1.443-4.084 1.443-1.628-.03-3.133-.46-4.484-1.29zm8.415-7.983v-.03c0-2.21-1.904-3.623-3.931-3.623s-3.716 1.412-3.716 3.623v.03c0 2.15 1.72 3.654 3.716 3.654 2.027-.03 3.931-1.505 3.931-3.654zM66.77 25.557c-2.948 0-5.344-2.272-5.344-5.588v-.03c0-3.101 2.18-5.588 5.16-5.588 3.163 0 4.975 2.579 4.975 5.434 0 .43-.338.737-.737.737h-7.77c.215 2.333 1.873 3.623 3.777 3.623 1.321 0 2.304-.522 3.102-1.26.123-.091.277-.183.46-.183.4 0 .707.307.707.675 0 .184-.092.369-.245.522-1.045 1.013-2.242 1.658-4.085 1.658zm3.194-6.202c-.154-1.965-1.29-3.653-3.44-3.653-1.873 0-3.286 1.565-3.5 3.653h6.94zM74.939 22.487v-6.478h-.86a.736.736 0 0 1-.706-.707c0-.399.337-.706.706-.706h.86V12.08c0-.43.338-.799.798-.799.43 0 .799.369.799.799v2.517h2.794c.4 0 .738.338.738.707 0 .399-.338.706-.737.706h-2.795v6.263c0 1.32.737 1.78 1.812 1.78.553 0 .86-.153.983-.153.368 0 .675.307.675.675a.654.654 0 0 1-.46.614c-.461.185-.953.277-1.567.277-1.75.03-3.04-.799-3.04-2.978zM81.788 20v-.03c0-3.04 2.364-5.588 5.497-5.588 1.781 0 2.979.675 3.93 1.565.124.093.247.307.247.553a.76.76 0 0 1-.768.768.887.887 0 0 1-.522-.185c-.768-.706-1.628-1.29-2.918-1.29-2.18 0-3.839 1.843-3.839 4.146v.03c0 2.334 1.69 4.176 3.931 4.176 1.229 0 2.212-.553 2.98-1.32a.655.655 0 0 1 .46-.215c.4 0 .737.337.737.736a.725.725 0 0 1-.215.492c-1.013 1.013-2.242 1.72-4.054 1.72-3.102 0-5.466-2.55-5.466-5.558zM93.335 20v-.03c0-3.04 2.365-5.588 5.59-5.588 3.224 0 5.589 2.517 5.589 5.557v.03c0 3.04-2.396 5.588-5.62 5.588-3.225 0-5.559-2.517-5.559-5.557zm9.52 0v-.03c0-2.303-1.719-4.207-3.992-4.207-2.334 0-3.931 1.904-3.931 4.145v.03c0 2.303 1.69 4.176 3.962 4.176 2.364.03 3.961-1.842 3.961-4.114zM107.401 15.303c0-.43.338-.799.798-.799.461 0 .799.338.799.799v1.166c.706-1.166 1.812-2.087 3.685-2.087 2.58 0 4.115 1.75 4.115 4.298v5.956c0 .46-.337.798-.798.798a.774.774 0 0 1-.798-.798v-5.588c0-1.995-1.075-3.223-2.979-3.223-1.843 0-3.225 1.35-3.225 3.346v5.434c0 .46-.338.799-.799.799a.774.774 0 0 1-.798-.799v-9.302zM120.729 22.487v-6.478h-.86a.736.736 0 0 1-.706-.707c0-.399.338-.706.706-.706h.86V12.08c0-.43.338-.799.799-.799.43 0 .798.369.798.799v2.517h2.795c.399 0 .737.338.737.707 0 .399-.338.706-.737.706h-2.795v6.263c0 1.32.737 1.78 1.812 1.78.553 0 .86-.153.983-.153.369 0 .676.307.676.675a.655.655 0 0 1-.461.614c-.461.185-.952.277-1.566.277-1.72.03-3.041-.799-3.041-2.978zM127.762 22.21v-.03c0-2.272 1.874-3.47 4.576-3.47 1.382 0 2.334.184 3.286.46v-.368c0-1.934-1.197-2.916-3.194-2.916a6.569 6.569 0 0 0-2.794.614c-.093.03-.215.061-.277.061-.368 0-.706-.307-.706-.675 0-.338.215-.584.43-.676a8.384 8.384 0 0 1 3.501-.737c1.505 0 2.672.4 3.47 1.198.737.737 1.106 1.75 1.106 3.131v5.864c0 .46-.338.799-.768.799-.461 0-.768-.338-.768-.737v-.983c-.737.983-1.996 1.842-3.869 1.842-1.997-.03-3.993-1.166-3.993-3.377zm7.893-.829v-1.044c-.799-.215-1.843-.46-3.163-.46-2.027 0-3.133.86-3.133 2.21v.031c0 1.351 1.259 2.15 2.703 2.15 1.996.03 3.593-1.198 3.593-2.887zM139.924 20v-.03c0-3.04 2.365-5.588 5.497-5.588 1.781 0 2.979.675 3.931 1.565.123.093.246.307.246.553a.76.76 0 0 1-.768.768.887.887 0 0 1-.522-.185c-.768-.706-1.628-1.29-2.918-1.29-2.18 0-3.838 1.843-3.838 4.146v.03c0 2.334 1.689 4.176 3.931 4.176 1.228 0 2.211-.553 2.979-1.32a.653.653 0 0 1 .46-.215c.399 0 .737.337.737.736a.724.724 0 0 1-.215.492c-1.013 1.013-2.242 1.72-4.054 1.72-3.101 0-5.466-2.55-5.466-5.558zM153.007 22.487v-6.478h-.86a.736.736 0 0 1-.707-.707c0-.399.338-.706.707-.706h.86V12.08c0-.43.338-.799.798-.799.43 0 .799.369.799.799v2.517h2.794c.4 0 .737.338.737.707 0 .399-.337.706-.737.706h-2.794v6.263c0 1.32.737 1.78 1.812 1.78.552 0 .86-.153.982-.153.369 0 .676.307.676.675a.654.654 0 0 1-.461.614c-.46.185-.952.277-1.566.277-1.75.03-3.04-.799-3.04-2.978z" fill="#fff"/>
</svg>
