<svg width="80" height="80" viewBox="0 0 80 80" fill="none" xmlns="http://www.w3.org/2000/svg">
    <path d="M80 0H0v80h80V0z" fill="#fff"/>
    <path d="M22.284 1.818h-1.86v1.86h1.86v-1.86zM24.144 1.818h-1.86v1.86h1.86v-1.86zM26.004 1.818h-1.86v1.86h1.86v-1.86zM27.865 1.818h-1.86v1.86h1.86v-1.86zM31.586 1.818h-1.86v1.86h1.86v-1.86zM33.447 1.818h-1.86v1.86h1.86v-1.86zM37.168 1.818h-1.86v1.86h1.86v-1.86zM40.889 1.818h-1.86v1.86h1.86v-1.86zM42.75 1.818h-1.861v1.86h1.86v-1.86zM46.47 1.818h-1.86v1.86h1.86v-1.86zM48.33 1.818h-1.86v1.86h1.86v-1.86zM55.773 1.818h-1.86v1.86h1.86v-1.86zM57.633 1.818h-1.86v1.86h1.86v-1.86zM63.215 1.818h-1.86v1.86h1.86v-1.86zM18.563 3.678h-1.86v1.86h1.86v-1.86zM20.423 3.678h-1.86v1.86h1.86v-1.86zM24.144 3.678h-1.86v1.86h1.86v-1.86zM27.865 3.678h-1.86v1.86h1.86v-1.86zM29.726 3.678h-1.86v1.86h1.86v-1.86zM31.586 3.678h-1.86v1.86h1.86v-1.86zM33.447 3.678h-1.86v1.86h1.86v-1.86zM35.307 3.678h-1.86v1.86h1.86v-1.86zM39.028 3.678h-1.86v1.86h1.86v-1.86zM42.75 3.678h-1.861v1.86h1.86v-1.86zM46.47 3.678h-1.86v1.86h1.86v-1.86zM48.33 3.678h-1.86v1.86h1.86v-1.86zM50.191 3.678h-1.86v1.86h1.86v-1.86zM52.052 3.678h-1.86v1.86h1.86v-1.86zM63.215 3.678h-1.86v1.86h1.86v-1.86zM18.563 5.539h-1.86v1.86h1.86V5.54zM20.423 5.539h-1.86v1.86h1.86V5.54zM22.284 5.539h-1.86v1.86h1.86V5.54zM26.004 5.539h-1.86v1.86h1.86V5.54zM29.726 5.539h-1.86v1.86h1.86V5.54zM39.028 5.539h-1.86v1.86h1.86V5.54zM52.052 5.539h-1.86v1.86h1.86V5.54zM53.912 5.539h-1.86v1.86h1.86V5.54zM55.773 5.539h-1.86v1.86h1.86V5.54zM57.633 5.539h-1.86v1.86h1.86V5.54zM18.563 7.4h-1.86v1.86h1.86V7.4zM20.423 7.4h-1.86v1.86h1.86V7.4zM24.144 7.4h-1.86v1.86h1.86V7.4zM26.004 7.4h-1.86v1.86h1.86V7.4zM27.865 7.4h-1.86v1.86h1.86V7.4zM29.726 7.4h-1.86v1.86h1.86V7.4zM33.447 7.4h-1.86v1.86h1.86V7.4zM40.889 7.4h-1.86v1.86h1.86V7.4zM42.75 7.4h-1.861v1.86h1.86V7.4zM52.052 7.4h-1.86v1.86h1.86V7.4zM61.354 7.4h-1.86v1.86h1.86V7.4zM18.563 9.26h-1.86v1.86h1.86V9.26zM20.423 9.26h-1.86v1.86h1.86V9.26zM24.144 9.26h-1.86v1.86h1.86V9.26zM26.004 9.26h-1.86v1.86h1.86V9.26zM27.865 9.26h-1.86v1.86h1.86V9.26zM31.586 9.26h-1.86v1.86h1.86V9.26zM35.307 9.26h-1.86v1.86h1.86V9.26zM37.168 9.26h-1.86v1.86h1.86V9.26zM39.028 9.26h-1.86v1.86h1.86V9.26zM48.33 9.26h-1.86v1.86h1.86V9.26zM50.191 9.26h-1.86v1.86h1.86V9.26zM52.052 9.26h-1.86v1.86h1.86V9.26zM57.633 9.26h-1.86v1.86h1.86V9.26zM18.563 11.12h-1.86v1.861h1.86v-1.86zM22.284 11.12h-1.86v1.861h1.86v-1.86zM27.865 11.12h-1.86v1.861h1.86v-1.86zM31.586 11.12h-1.86v1.861h1.86v-1.86zM44.61 11.12h-1.86v1.861h1.86v-1.86zM48.33 11.12h-1.86v1.861h1.86v-1.86zM50.191 11.12h-1.86v1.861h1.86v-1.86zM52.052 11.12h-1.86v1.861h1.86v-1.86zM57.633 11.12h-1.86v1.861h1.86v-1.86zM59.494 11.12h-1.86v1.861h1.86v-1.86zM63.215 11.12h-1.86v1.861h1.86v-1.86zM18.563 12.981h-1.86v1.86h1.86v-1.86zM22.284 12.981h-1.86v1.86h1.86v-1.86zM26.004 12.981h-1.86v1.86h1.86v-1.86zM29.726 12.981h-1.86v1.86h1.86v-1.86zM33.447 12.981h-1.86v1.86h1.86v-1.86zM37.168 12.981h-1.86v1.86h1.86v-1.86zM40.889 12.981h-1.86v1.86h1.86v-1.86zM44.61 12.981h-1.86v1.86h1.86v-1.86zM48.33 12.981h-1.86v1.86h1.86v-1.86zM52.052 12.981h-1.86v1.86h1.86v-1.86zM55.773 12.981h-1.86v1.86h1.86v-1.86zM59.494 12.981h-1.86v1.86h1.86v-1.86zM63.215 12.981h-1.86v1.86h1.86v-1.86zM24.144 14.842h-1.86v1.86h1.86v-1.86zM27.865 14.842h-1.86v1.86h1.86v-1.86zM29.726 14.842h-1.86v1.86h1.86v-1.86zM35.307 14.842h-1.86v1.86h1.86v-1.86zM37.168 14.842h-1.86v1.86h1.86v-1.86zM39.028 14.842h-1.86v1.86h1.86v-1.86zM46.47 14.842h-1.86v1.86h1.86v-1.86zM52.052 14.842h-1.86v1.86h1.86v-1.86zM53.912 14.842h-1.86v1.86h1.86v-1.86zM55.773 14.842h-1.86v1.86h1.86v-1.86zM59.494 14.842h-1.86v1.86h1.86v-1.86zM61.354 14.842h-1.86v1.86h1.86v-1.86zM63.215 14.842h-1.86v1.86h1.86v-1.86zM7.4 16.703H5.538v1.86h1.86v-1.86zM12.981 16.703h-1.86v1.86h1.86v-1.86zM14.841 16.703h-1.86v1.86h1.86v-1.86zM16.702 16.703h-1.86v1.86h1.86v-1.86zM18.563 16.703h-1.86v1.86h1.86v-1.86zM20.423 16.703h-1.86v1.86h1.86v-1.86zM26.004 16.703h-1.86v1.86h1.86v-1.86zM35.307 16.703h-1.86v1.86h1.86v-1.86zM37.168 16.703h-1.86v1.86h1.86v-1.86zM39.028 16.703h-1.86v1.86h1.86v-1.86zM44.61 16.703h-1.86v1.86h1.86v-1.86zM48.33 16.703h-1.86v1.86h1.86v-1.86zM63.215 16.703h-1.86v1.86h1.86v-1.86zM65.076 16.703h-1.86v1.86h1.86v-1.86zM68.796 16.703h-1.86v1.86h1.86v-1.86zM70.657 16.703h-1.86v1.86h1.86v-1.86zM72.517 16.703h-1.86v1.86h1.86v-1.86zM74.378 16.703h-1.86v1.86h1.86v-1.86zM76.239 16.703h-1.86v1.86h1.86v-1.86zM7.4 18.563H5.538v1.86h1.86v-1.86zM11.12 18.563H9.26v1.86h1.86v-1.86zM18.563 18.563h-1.86v1.86h1.86v-1.86zM22.284 18.563h-1.86v1.86h1.86v-1.86zM24.144 18.563h-1.86v1.86h1.86v-1.86zM29.726 18.563h-1.86v1.86h1.86v-1.86zM31.586 18.563h-1.86v1.86h1.86v-1.86zM37.168 18.563h-1.86v1.86h1.86v-1.86zM46.47 18.563h-1.86v1.86h1.86v-1.86zM48.33 18.563h-1.86v1.86h1.86v-1.86zM50.191 18.563h-1.86v1.86h1.86v-1.86zM53.912 18.563h-1.86v1.86h1.86v-1.86zM55.773 18.563h-1.86v1.86h1.86v-1.86zM57.633 18.563h-1.86v1.86h1.86v-1.86zM61.354 18.563h-1.86v1.86h1.86v-1.86zM63.215 18.563h-1.86v1.86h1.86v-1.86zM68.796 18.563h-1.86v1.86h1.86v-1.86zM74.378 18.563h-1.86v1.86h1.86v-1.86zM78.099 18.563h-1.86v1.86h1.86v-1.86zM9.26 20.423H7.4v1.86h1.86v-1.86zM11.12 20.423H9.26v1.86h1.86v-1.86zM14.841 20.423h-1.86v1.86h1.86v-1.86zM18.563 20.423h-1.86v1.86h1.86v-1.86zM20.423 20.423h-1.86v1.86h1.86v-1.86zM24.144 20.423h-1.86v1.86h1.86v-1.86zM27.865 20.423h-1.86v1.86h1.86v-1.86zM31.586 20.423h-1.86v1.86h1.86v-1.86zM37.168 20.423h-1.86v1.86h1.86v-1.86zM39.028 20.423h-1.86v1.86h1.86v-1.86zM44.61 20.423h-1.86v1.86h1.86v-1.86zM53.912 20.423h-1.86v1.86h1.86v-1.86zM61.354 20.423h-1.86v1.86h1.86v-1.86zM65.076 20.423h-1.86v1.86h1.86v-1.86zM66.936 20.423h-1.86v1.86h1.86v-1.86zM72.517 20.423h-1.86v1.86h1.86v-1.86zM74.378 20.423h-1.86v1.86h1.86v-1.86zM78.099 20.423h-1.86v1.86h1.86v-1.86zM3.679 22.284h-1.86v1.86h1.86v-1.86zM9.26 22.284H7.4v1.86h1.86v-1.86zM11.12 22.284H9.26v1.86h1.86v-1.86zM18.563 22.284h-1.86v1.86h1.86v-1.86zM22.284 22.284h-1.86v1.86h1.86v-1.86zM29.726 22.284h-1.86v1.86h1.86v-1.86zM31.586 22.284h-1.86v1.86h1.86v-1.86zM33.447 22.284h-1.86v1.86h1.86v-1.86zM35.307 22.284h-1.86v1.86h1.86v-1.86zM39.028 22.284h-1.86v1.86h1.86v-1.86zM40.889 22.284h-1.86v1.86h1.86v-1.86zM42.75 22.284h-1.861v1.86h1.86v-1.86zM46.47 22.284h-1.86v1.86h1.86v-1.86zM48.33 22.284h-1.86v1.86h1.86v-1.86zM52.052 22.284h-1.86v1.86h1.86v-1.86zM55.773 22.284h-1.86v1.86h1.86v-1.86zM61.354 22.284h-1.86v1.86h1.86v-1.86zM63.215 22.284h-1.86v1.86h1.86v-1.86zM65.076 22.284h-1.86v1.86h1.86v-1.86zM72.517 22.284h-1.86v1.86h1.86v-1.86zM78.099 22.284h-1.86v1.86h1.86v-1.86zM3.679 24.144h-1.86v1.86h1.86v-1.86z" fill="#000"/>
    <path d="M5.539 24.144h-1.86v1.86h1.86v-1.86zM9.26 24.144H7.4v1.86h1.86v-1.86zM12.981 24.144h-1.86v1.86h1.86v-1.86zM14.841 24.144h-1.86v1.86h1.86v-1.86zM20.423 24.144h-1.86v1.86h1.86v-1.86zM26.004 24.144h-1.86v1.86h1.86v-1.86zM27.865 24.144h-1.86v1.86h1.86v-1.86zM31.586 24.144h-1.86v1.86h1.86v-1.86zM35.307 24.144h-1.86v1.86h1.86v-1.86zM37.168 24.144h-1.86v1.86h1.86v-1.86zM44.61 24.144h-1.86v1.86h1.86v-1.86zM50.191 24.144h-1.86v1.86h1.86v-1.86zM53.912 24.144h-1.86v1.86h1.86v-1.86zM63.215 24.144h-1.86v1.86h1.86v-1.86zM65.076 24.144h-1.86v1.86h1.86v-1.86zM66.936 24.144h-1.86v1.86h1.86v-1.86zM68.796 24.144h-1.86v1.86h1.86v-1.86zM76.239 24.144h-1.86v1.86h1.86v-1.86zM78.099 24.144h-1.86v1.86h1.86v-1.86zM5.539 26.005h-1.86v1.86h1.86v-1.86z" fill="#000"/>
    <path d="M7.4 26.005H5.538v1.86h1.86v-1.86zM11.12 26.005H9.26v1.86h1.86v-1.86zM12.981 26.005h-1.86v1.86h1.86v-1.86zM16.702 26.005h-1.86v1.86h1.86v-1.86zM31.586 26.005h-1.86v1.86h1.86v-1.86zM33.447 26.005h-1.86v1.86h1.86v-1.86zM37.168 26.005h-1.86v1.86h1.86v-1.86zM44.61 26.005h-1.86v1.86h1.86v-1.86zM46.47 26.005h-1.86v1.86h1.86v-1.86zM50.191 26.005h-1.86v1.86h1.86v-1.86zM52.052 26.005h-1.86v1.86h1.86v-1.86zM63.215 26.005h-1.86v1.86h1.86v-1.86zM65.076 26.005h-1.86v1.86h1.86v-1.86zM68.796 26.005h-1.86v1.86h1.86v-1.86zM72.517 26.005h-1.86v1.86h1.86v-1.86zM74.378 26.005h-1.86v1.86h1.86v-1.86zM78.099 26.005h-1.86v1.86h1.86v-1.86zM3.679 27.866h-1.86v1.86h1.86v-1.86z" fill="#000"/>
    <path d="M5.539 27.866h-1.86v1.86h1.86v-1.86z" fill="#000"/>
    <path d="M7.4 27.866H5.538v1.86h1.86v-1.86zM9.26 27.866H7.4v1.86h1.86v-1.86zM14.841 27.866h-1.86v1.86h1.86v-1.86zM16.702 27.866h-1.86v1.86h1.86v-1.86zM20.423 27.866h-1.86v1.86h1.86v-1.86zM24.144 27.866h-1.86v1.86h1.86v-1.86zM31.586 27.866h-1.86v1.86h1.86v-1.86zM39.028 27.866h-1.86v1.86h1.86v-1.86zM40.889 27.866h-1.86v1.86h1.86v-1.86zM44.61 27.866h-1.86v1.86h1.86v-1.86zM46.47 27.866h-1.86v1.86h1.86v-1.86zM48.33 27.866h-1.86v1.86h1.86v-1.86zM52.052 27.866h-1.86v1.86h1.86v-1.86zM53.912 27.866h-1.86v1.86h1.86v-1.86zM57.633 27.866h-1.86v1.86h1.86v-1.86zM59.494 27.866h-1.86v1.86h1.86v-1.86zM63.215 27.866h-1.86v1.86h1.86v-1.86zM65.076 27.866h-1.86v1.86h1.86v-1.86zM66.936 27.866h-1.86v1.86h1.86v-1.86zM70.657 27.866h-1.86v1.86h1.86v-1.86zM78.099 27.866h-1.86v1.86h1.86v-1.86zM7.4 29.726H5.538v1.86h1.86v-1.86zM9.26 29.726H7.4v1.86h1.86v-1.86zM11.12 29.726H9.26v1.86h1.86v-1.86zM16.702 29.726h-1.86v1.86h1.86v-1.86zM18.563 29.726h-1.86v1.86h1.86v-1.86zM20.423 29.726h-1.86v1.86h1.86v-1.86zM24.144 29.726h-1.86v1.86h1.86v-1.86zM26.004 29.726h-1.86v1.86h1.86v-1.86zM29.726 29.726h-1.86v1.86h1.86v-1.86zM33.447 29.726h-1.86v1.86h1.86v-1.86zM37.168 29.726h-1.86v1.86h1.86v-1.86zM39.028 29.726h-1.86v1.86h1.86v-1.86zM40.889 29.726h-1.86v1.86h1.86v-1.86zM46.47 29.726h-1.86v1.86h1.86v-1.86zM50.191 29.726h-1.86v1.86h1.86v-1.86zM52.052 29.726h-1.86v1.86h1.86v-1.86zM59.494 29.726h-1.86v1.86h1.86v-1.86zM61.354 29.726h-1.86v1.86h1.86v-1.86zM63.215 29.726h-1.86v1.86h1.86v-1.86zM65.076 29.726h-1.86v1.86h1.86v-1.86zM66.936 29.726h-1.86v1.86h1.86v-1.86zM72.517 29.726h-1.86v1.86h1.86v-1.86zM78.099 29.726h-1.86v1.86h1.86v-1.86zM3.679 31.586h-1.86v1.86h1.86v-1.86zM9.26 31.586H7.4v1.86h1.86v-1.86zM14.841 31.586h-1.86v1.86h1.86v-1.86zM16.702 31.586h-1.86v1.86h1.86v-1.86zM18.563 31.586h-1.86v1.86h1.86v-1.86zM24.144 31.586h-1.86v1.86h1.86v-1.86zM27.865 31.586h-1.86v1.86h1.86v-1.86zM31.586 31.586h-1.86v1.86h1.86v-1.86zM35.307 31.586h-1.86v1.86h1.86v-1.86zM39.028 31.586h-1.86v1.86h1.86v-1.86zM46.47 31.586h-1.86v1.86h1.86v-1.86zM50.191 31.586h-1.86v1.86h1.86v-1.86zM53.912 31.586h-1.86v1.86h1.86v-1.86zM59.494 31.586h-1.86v1.86h1.86v-1.86zM63.215 31.586h-1.86v1.86h1.86v-1.86zM65.076 31.586h-1.86v1.86h1.86v-1.86zM66.936 31.586h-1.86v1.86h1.86v-1.86zM72.517 31.586h-1.86v1.86h1.86v-1.86zM3.679 33.447h-1.86v1.86h1.86v-1.86zM9.26 33.447H7.4v1.86h1.86v-1.86zM18.563 33.447h-1.86v1.86h1.86v-1.86zM22.284 33.447h-1.86v1.86h1.86v-1.86zM24.144 33.447h-1.86v1.86h1.86v-1.86zM35.307 33.447h-1.86v1.86h1.86v-1.86zM37.168 33.447h-1.86v1.86h1.86v-1.86zM39.028 33.447h-1.86v1.86h1.86v-1.86zM42.75 33.447h-1.861v1.86h1.86v-1.86zM48.33 33.447h-1.86v1.86h1.86v-1.86zM50.191 33.447h-1.86v1.86h1.86v-1.86zM53.912 33.447h-1.86v1.86h1.86v-1.86zM57.633 33.447h-1.86v1.86h1.86v-1.86zM59.494 33.447h-1.86v1.86h1.86v-1.86zM61.354 33.447h-1.86v1.86h1.86v-1.86zM65.076 33.447h-1.86v1.86h1.86v-1.86zM66.936 33.447h-1.86v1.86h1.86v-1.86zM68.796 33.447h-1.86v1.86h1.86v-1.86zM72.517 33.447h-1.86v1.86h1.86v-1.86zM74.378 33.447h-1.86v1.86h1.86v-1.86zM78.099 33.447h-1.86v1.86h1.86v-1.86zM7.4 35.308H5.538v1.86h1.86v-1.86zM11.12 35.308H9.26v1.86h1.86v-1.86zM12.981 35.308h-1.86v1.86h1.86v-1.86zM14.841 35.308h-1.86v1.86h1.86v-1.86zM18.563 35.308h-1.86v1.86h1.86v-1.86zM22.284 35.308h-1.86v1.86h1.86v-1.86zM24.144 35.308h-1.86v1.86h1.86v-1.86zM29.726 35.308h-1.86v1.86h1.86v-1.86zM44.61 35.308h-1.86v1.86h1.86v-1.86zM46.47 35.308h-1.86v1.86h1.86v-1.86zM53.912 35.308h-1.86v1.86h1.86v-1.86zM61.354 35.308h-1.86v1.86h1.86v-1.86zM63.215 35.308h-1.86v1.86h1.86v-1.86zM65.076 35.308h-1.86v1.86h1.86v-1.86zM66.936 35.308h-1.86v1.86h1.86v-1.86zM68.796 35.308h-1.86v1.86h1.86v-1.86zM70.657 35.308h-1.86v1.86h1.86v-1.86zM74.378 35.308h-1.86v1.86h1.86v-1.86zM78.099 35.308h-1.86v1.86h1.86v-1.86zM5.539 37.168h-1.86v1.86h1.86v-1.86zM12.981 37.168h-1.86v1.86h1.86v-1.86zM16.702 37.168h-1.86v1.86h1.86v-1.86zM27.865 37.168h-1.86v1.86h1.86v-1.86zM33.447 37.168h-1.86v1.86h1.86v-1.86zM35.307 37.168h-1.86v1.86h1.86v-1.86zM37.168 37.168h-1.86v1.86h1.86v-1.86zM39.028 37.168h-1.86v1.86h1.86v-1.86zM40.889 37.168h-1.86v1.86h1.86v-1.86zM50.191 37.168h-1.86v1.86h1.86v-1.86zM52.052 37.168h-1.86v1.86h1.86v-1.86zM53.912 37.168h-1.86v1.86h1.86v-1.86zM57.633 37.168h-1.86v1.86h1.86v-1.86zM63.215 37.168h-1.86v1.86h1.86v-1.86zM65.076 37.168h-1.86v1.86h1.86v-1.86zM66.936 37.168h-1.86v1.86h1.86v-1.86zM72.517 37.168h-1.86v1.86h1.86v-1.86zM76.239 37.168h-1.86v1.86h1.86v-1.86zM78.099 37.168h-1.86v1.86h1.86v-1.86zM3.679 39.028h-1.86v1.86h1.86v-1.86z" fill="#000"/>
    <path d="M5.539 39.028h-1.86v1.86h1.86v-1.86zM11.12 39.028H9.26v1.86h1.86v-1.86zM12.981 39.028h-1.86v1.86h1.86v-1.86zM14.841 39.028h-1.86v1.86h1.86v-1.86zM16.702 39.028h-1.86v1.86h1.86v-1.86zM18.563 39.028h-1.86v1.86h1.86v-1.86zM29.726 39.028h-1.86v1.86h1.86v-1.86zM31.586 39.028h-1.86v1.86h1.86v-1.86zM35.307 39.028h-1.86v1.86h1.86v-1.86zM39.028 39.028h-1.86v1.86h1.86v-1.86zM40.889 39.028h-1.86v1.86h1.86v-1.86zM42.75 39.028h-1.861v1.86h1.86v-1.86zM44.61 39.028h-1.86v1.86h1.86v-1.86zM53.912 39.028h-1.86v1.86h1.86v-1.86zM55.773 39.028h-1.86v1.86h1.86v-1.86zM57.633 39.028h-1.86v1.86h1.86v-1.86zM61.354 39.028h-1.86v1.86h1.86v-1.86zM63.215 39.028h-1.86v1.86h1.86v-1.86zM66.936 39.028h-1.86v1.86h1.86v-1.86zM68.796 39.028h-1.86v1.86h1.86v-1.86zM70.657 39.028h-1.86v1.86h1.86v-1.86zM72.517 39.028h-1.86v1.86h1.86v-1.86zM76.239 39.028h-1.86v1.86h1.86v-1.86zM78.099 39.028h-1.86v1.86h1.86v-1.86zM3.679 40.889h-1.86v1.86h1.86v-1.86z" fill="#000"/>
    <path d="M5.539 40.889h-1.86v1.86h1.86v-1.86zM9.26 40.889H7.4v1.86h1.86v-1.86zM16.702 40.889h-1.86v1.86h1.86v-1.86zM18.563 40.889h-1.86v1.86h1.86v-1.86zM24.144 40.889h-1.86v1.86h1.86v-1.86zM27.865 40.889h-1.86v1.86h1.86v-1.86zM29.726 40.889h-1.86v1.86h1.86v-1.86zM33.447 40.889h-1.86v1.86h1.86v-1.86zM35.307 40.889h-1.86v1.86h1.86v-1.86zM39.028 40.889h-1.86v1.86h1.86v-1.86zM44.61 40.889h-1.86v1.86h1.86v-1.86zM50.191 40.889h-1.86v1.86h1.86v-1.86zM52.052 40.889h-1.86v1.86h1.86v-1.86zM53.912 40.889h-1.86v1.86h1.86v-1.86zM55.773 40.889h-1.86v1.86h1.86v-1.86zM61.354 40.889h-1.86v1.86h1.86v-1.86zM63.215 40.889h-1.86v1.86h1.86v-1.86zM65.076 40.889h-1.86v1.86h1.86v-1.86zM66.936 40.889h-1.86v1.86h1.86v-1.86zM68.796 40.889h-1.86v1.86h1.86v-1.86zM70.657 40.889h-1.86v1.86h1.86v-1.86zM72.517 40.889h-1.86v1.86h1.86v-1.86zM78.099 40.889h-1.86v1.86h1.86v-1.86zM5.539 42.749h-1.86v1.86h1.86v-1.86zM12.981 42.749h-1.86v1.86h1.86v-1.86zM14.841 42.749h-1.86v1.86h1.86v-1.86zM16.702 42.749h-1.86v1.86h1.86v-1.86zM18.563 42.749h-1.86v1.86h1.86v-1.86zM31.586 42.749h-1.86v1.86h1.86v-1.86zM35.307 42.749h-1.86v1.86h1.86v-1.86zM42.75 42.749h-1.861v1.86h1.86v-1.86zM44.61 42.749h-1.86v1.86h1.86v-1.86zM46.47 42.749h-1.86v1.86h1.86v-1.86zM48.33 42.749h-1.86v1.86h1.86v-1.86zM53.912 42.749h-1.86v1.86h1.86v-1.86zM57.633 42.749h-1.86v1.86h1.86v-1.86zM61.354 42.749h-1.86v1.86h1.86v-1.86zM63.215 42.749h-1.86v1.86h1.86v-1.86zM68.796 42.749h-1.86v1.86h1.86v-1.86zM72.517 42.749h-1.86v1.86h1.86v-1.86zM74.378 42.749h-1.86v1.86h1.86v-1.86zM78.099 42.749h-1.86v1.86h1.86v-1.86zM3.679 44.61h-1.86v1.86h1.86v-1.86zM9.26 44.61H7.4v1.86h1.86v-1.86zM11.12 44.61H9.26v1.86h1.86v-1.86zM12.981 44.61h-1.86v1.86h1.86v-1.86zM18.563 44.61h-1.86v1.86h1.86v-1.86zM22.284 44.61h-1.86v1.86h1.86v-1.86zM26.004 44.61h-1.86v1.86h1.86v-1.86zM29.726 44.61h-1.86v1.86h1.86v-1.86zM35.307 44.61h-1.86v1.86h1.86v-1.86zM37.168 44.61h-1.86v1.86h1.86v-1.86zM39.028 44.61h-1.86v1.86h1.86v-1.86zM40.889 44.61h-1.86v1.86h1.86v-1.86zM42.75 44.61h-1.861v1.86h1.86v-1.86zM48.33 44.61h-1.86v1.86h1.86v-1.86zM59.494 44.61h-1.86v1.86h1.86v-1.86zM61.354 44.61h-1.86v1.86h1.86v-1.86zM63.215 44.61h-1.86v1.86h1.86v-1.86zM65.076 44.61h-1.86v1.86h1.86v-1.86zM68.796 44.61h-1.86v1.86h1.86v-1.86zM70.657 44.61h-1.86v1.86h1.86v-1.86zM76.239 44.61h-1.86v1.86h1.86v-1.86zM78.099 44.61h-1.86v1.86h1.86v-1.86zM5.539 46.47h-1.86v1.86h1.86v-1.86zM11.12 46.47H9.26v1.86h1.86v-1.86zM12.981 46.47h-1.86v1.86h1.86v-1.86zM14.841 46.47h-1.86v1.86h1.86v-1.86zM18.563 46.47h-1.86v1.86h1.86v-1.86zM26.004 46.47h-1.86v1.86h1.86v-1.86zM29.726 46.47h-1.86v1.86h1.86v-1.86zM31.586 46.47h-1.86v1.86h1.86v-1.86zM33.447 46.47h-1.86v1.86h1.86v-1.86zM37.168 46.47h-1.86v1.86h1.86v-1.86zM39.028 46.47h-1.86v1.86h1.86v-1.86zM40.889 46.47h-1.86v1.86h1.86v-1.86zM42.75 46.47h-1.861v1.86h1.86v-1.86zM44.61 46.47h-1.86v1.86h1.86v-1.86zM48.33 46.47h-1.86v1.86h1.86v-1.86zM52.052 46.47h-1.86v1.86h1.86v-1.86zM55.773 46.47h-1.86v1.86h1.86v-1.86zM63.215 46.47h-1.86v1.86h1.86v-1.86zM66.936 46.47h-1.86v1.86h1.86v-1.86zM70.657 46.47h-1.86v1.86h1.86v-1.86zM72.517 46.47h-1.86v1.86h1.86v-1.86zM5.539 48.33h-1.86v1.861h1.86v-1.86z" fill="#000"/>
    <path d="M7.4 48.33H5.538v1.861h1.86v-1.86zM16.702 48.33h-1.86v1.861h1.86v-1.86zM20.423 48.33h-1.86v1.861h1.86v-1.86zM24.144 48.33h-1.86v1.861h1.86v-1.86zM29.726 48.33h-1.86v1.861h1.86v-1.86zM33.447 48.33h-1.86v1.861h1.86v-1.86zM37.168 48.33h-1.86v1.861h1.86v-1.86zM42.75 48.33h-1.861v1.861h1.86v-1.86zM48.33 48.33h-1.86v1.861h1.86v-1.86zM53.912 48.33h-1.86v1.861h1.86v-1.86zM55.773 48.33h-1.86v1.861h1.86v-1.86zM59.494 48.33h-1.86v1.861h1.86v-1.86zM61.354 48.33h-1.86v1.861h1.86v-1.86zM65.076 48.33h-1.86v1.861h1.86v-1.86zM68.796 48.33h-1.86v1.861h1.86v-1.86zM72.517 48.33h-1.86v1.861h1.86v-1.86zM78.099 48.33h-1.86v1.861h1.86v-1.86zM3.679 50.191h-1.86v1.86h1.86v-1.86z" fill="#000"/>
    <path d="M5.539 50.191h-1.86v1.86h1.86v-1.86z" fill="#000"/>
    <path d="M7.4 50.191H5.538v1.86h1.86v-1.86zM9.26 50.191H7.4v1.86h1.86v-1.86zM12.981 50.191h-1.86v1.86h1.86v-1.86zM14.841 50.191h-1.86v1.86h1.86v-1.86zM20.423 50.191h-1.86v1.86h1.86v-1.86zM26.004 50.191h-1.86v1.86h1.86v-1.86zM27.865 50.191h-1.86v1.86h1.86v-1.86zM31.586 50.191h-1.86v1.86h1.86v-1.86zM35.307 50.191h-1.86v1.86h1.86v-1.86zM37.168 50.191h-1.86v1.86h1.86v-1.86zM40.889 50.191h-1.86v1.86h1.86v-1.86zM42.75 50.191h-1.861v1.86h1.86v-1.86zM44.61 50.191h-1.86v1.86h1.86v-1.86zM52.052 50.191h-1.86v1.86h1.86v-1.86zM53.912 50.191h-1.86v1.86h1.86v-1.86zM57.633 50.191h-1.86v1.86h1.86v-1.86zM61.354 50.191h-1.86v1.86h1.86v-1.86zM72.517 50.191h-1.86v1.86h1.86v-1.86zM74.378 50.191h-1.86v1.86h1.86v-1.86zM78.099 50.191h-1.86v1.86h1.86v-1.86zM3.679 52.052h-1.86v1.86h1.86v-1.86zM9.26 52.052H7.4v1.86h1.86v-1.86zM11.12 52.052H9.26v1.86h1.86v-1.86zM12.981 52.052h-1.86v1.86h1.86v-1.86zM16.702 52.052h-1.86v1.86h1.86v-1.86zM18.563 52.052h-1.86v1.86h1.86v-1.86zM24.144 52.052h-1.86v1.86h1.86v-1.86zM29.726 52.052h-1.86v1.86h1.86v-1.86zM33.447 52.052h-1.86v1.86h1.86v-1.86zM40.889 52.052h-1.86v1.86h1.86v-1.86zM42.75 52.052h-1.861v1.86h1.86v-1.86zM44.61 52.052h-1.86v1.86h1.86v-1.86zM46.47 52.052h-1.86v1.86h1.86v-1.86zM48.33 52.052h-1.86v1.86h1.86v-1.86zM50.191 52.052h-1.86v1.86h1.86v-1.86zM52.052 52.052h-1.86v1.86h1.86v-1.86zM53.912 52.052h-1.86v1.86h1.86v-1.86zM55.773 52.052h-1.86v1.86h1.86v-1.86zM59.494 52.052h-1.86v1.86h1.86v-1.86zM61.354 52.052h-1.86v1.86h1.86v-1.86zM63.215 52.052h-1.86v1.86h1.86v-1.86zM66.936 52.052h-1.86v1.86h1.86v-1.86zM68.796 52.052h-1.86v1.86h1.86v-1.86zM70.657 52.052h-1.86v1.86h1.86v-1.86zM72.517 52.052h-1.86v1.86h1.86v-1.86zM78.099 52.052h-1.86v1.86h1.86v-1.86zM11.12 53.913H9.26v1.86h1.86v-1.86zM12.981 53.913h-1.86v1.86h1.86v-1.86zM14.841 53.913h-1.86v1.86h1.86v-1.86zM18.563 53.913h-1.86v1.86h1.86v-1.86zM22.284 53.913h-1.86v1.86h1.86v-1.86zM26.004 53.913h-1.86v1.86h1.86v-1.86zM33.447 53.913h-1.86v1.86h1.86v-1.86zM35.307 53.913h-1.86v1.86h1.86v-1.86zM37.168 53.913h-1.86v1.86h1.86v-1.86zM39.028 53.913h-1.86v1.86h1.86v-1.86zM42.75 53.913h-1.861v1.86h1.86v-1.86zM48.33 53.913h-1.86v1.86h1.86v-1.86zM50.191 53.913h-1.86v1.86h1.86v-1.86zM53.912 53.913h-1.86v1.86h1.86v-1.86zM55.773 53.913h-1.86v1.86h1.86v-1.86zM68.796 53.913h-1.86v1.86h1.86v-1.86zM78.099 53.913h-1.86v1.86h1.86v-1.86zM5.539 55.773h-1.86v1.86h1.86v-1.86zM9.26 55.773H7.4v1.86h1.86v-1.86zM11.12 55.773H9.26v1.86h1.86v-1.86zM12.981 55.773h-1.86v1.86h1.86v-1.86zM20.423 55.773h-1.86v1.86h1.86v-1.86zM22.284 55.773h-1.86v1.86h1.86v-1.86zM29.726 55.773h-1.86v1.86h1.86v-1.86zM31.586 55.773h-1.86v1.86h1.86v-1.86zM37.168 55.773h-1.86v1.86h1.86v-1.86zM39.028 55.773h-1.86v1.86h1.86v-1.86zM42.75 55.773h-1.861v1.86h1.86v-1.86zM44.61 55.773h-1.86v1.86h1.86v-1.86zM48.33 55.773h-1.86v1.86h1.86v-1.86zM50.191 55.773h-1.86v1.86h1.86v-1.86zM55.773 55.773h-1.86v1.86h1.86v-1.86zM68.796 55.773h-1.86v1.86h1.86v-1.86zM72.517 55.773h-1.86v1.86h1.86v-1.86zM74.378 55.773h-1.86v1.86h1.86v-1.86zM78.099 55.773h-1.86v1.86h1.86v-1.86zM3.679 57.633h-1.86v1.86h1.86v-1.86z" fill="#000"/>
    <path d="M5.539 57.633h-1.86v1.86h1.86v-1.86z" fill="#000"/>
    <path d="M7.4 57.633H5.538v1.86h1.86v-1.86zM9.26 57.633H7.4v1.86h1.86v-1.86zM12.981 57.633h-1.86v1.86h1.86v-1.86zM14.841 57.633h-1.86v1.86h1.86v-1.86zM20.423 57.633h-1.86v1.86h1.86v-1.86zM26.004 57.633h-1.86v1.86h1.86v-1.86zM35.307 57.633h-1.86v1.86h1.86v-1.86zM37.168 57.633h-1.86v1.86h1.86v-1.86zM40.889 57.633h-1.86v1.86h1.86v-1.86zM48.33 57.633h-1.86v1.86h1.86v-1.86zM50.191 57.633h-1.86v1.86h1.86v-1.86zM52.052 57.633h-1.86v1.86h1.86v-1.86zM55.773 57.633h-1.86v1.86h1.86v-1.86zM57.633 57.633h-1.86v1.86h1.86v-1.86zM61.354 57.633h-1.86v1.86h1.86v-1.86zM65.076 57.633h-1.86v1.86h1.86v-1.86zM68.796 57.633h-1.86v1.86h1.86v-1.86zM70.657 57.633h-1.86v1.86h1.86v-1.86zM72.517 57.633h-1.86v1.86h1.86v-1.86zM76.239 57.633h-1.86v1.86h1.86v-1.86zM78.099 57.633h-1.86v1.86h1.86v-1.86zM7.4 59.494H5.538v1.86h1.86v-1.86zM9.26 59.494H7.4v1.86h1.86v-1.86zM12.981 59.494h-1.86v1.86h1.86v-1.86zM16.702 59.494h-1.86v1.86h1.86v-1.86zM18.563 59.494h-1.86v1.86h1.86v-1.86zM20.423 59.494h-1.86v1.86h1.86v-1.86zM22.284 59.494h-1.86v1.86h1.86v-1.86zM27.865 59.494h-1.86v1.86h1.86v-1.86zM31.586 59.494h-1.86v1.86h1.86v-1.86zM33.447 59.494h-1.86v1.86h1.86v-1.86zM35.307 59.494h-1.86v1.86h1.86v-1.86zM39.028 59.494h-1.86v1.86h1.86v-1.86zM40.889 59.494h-1.86v1.86h1.86v-1.86zM44.61 59.494h-1.86v1.86h1.86v-1.86zM46.47 59.494h-1.86v1.86h1.86v-1.86zM48.33 59.494h-1.86v1.86h1.86v-1.86zM53.912 59.494h-1.86v1.86h1.86v-1.86zM55.773 59.494h-1.86v1.86h1.86v-1.86zM59.494 59.494h-1.86v1.86h1.86v-1.86zM66.936 59.494h-1.86v1.86h1.86v-1.86zM68.796 59.494h-1.86v1.86h1.86v-1.86zM72.517 59.494h-1.86v1.86h1.86v-1.86zM76.239 59.494h-1.86v1.86h1.86v-1.86zM78.099 59.494h-1.86v1.86h1.86v-1.86zM3.679 61.354h-1.86v1.86h1.86v-1.86z" fill="#000"/>
    <path d="M5.539 61.354h-1.86v1.86h1.86v-1.86zM11.12 61.354H9.26v1.86h1.86v-1.86zM12.981 61.354h-1.86v1.86h1.86v-1.86zM14.841 61.354h-1.86v1.86h1.86v-1.86zM16.702 61.354h-1.86v1.86h1.86v-1.86zM20.423 61.354h-1.86v1.86h1.86v-1.86zM24.144 61.354h-1.86v1.86h1.86v-1.86zM27.865 61.354h-1.86v1.86h1.86v-1.86zM29.726 61.354h-1.86v1.86h1.86v-1.86zM31.586 61.354h-1.86v1.86h1.86v-1.86zM33.447 61.354h-1.86v1.86h1.86v-1.86zM37.168 61.354h-1.86v1.86h1.86v-1.86zM39.028 61.354h-1.86v1.86h1.86v-1.86zM44.61 61.354h-1.86v1.86h1.86v-1.86zM46.47 61.354h-1.86v1.86h1.86v-1.86zM50.191 61.354h-1.86v1.86h1.86v-1.86zM52.052 61.354h-1.86v1.86h1.86v-1.86zM55.773 61.354h-1.86v1.86h1.86v-1.86zM59.494 61.354h-1.86v1.86h1.86v-1.86zM61.354 61.354h-1.86v1.86h1.86v-1.86zM63.215 61.354h-1.86v1.86h1.86v-1.86zM65.076 61.354h-1.86v1.86h1.86v-1.86zM66.936 61.354h-1.86v1.86h1.86v-1.86zM68.796 61.354h-1.86v1.86h1.86v-1.86zM70.657 61.354h-1.86v1.86h1.86v-1.86zM76.239 61.354h-1.86v1.86h1.86v-1.86zM18.563 63.215h-1.86v1.86h1.86v-1.86zM26.004 63.215h-1.86v1.86h1.86v-1.86zM27.865 63.215h-1.86v1.86h1.86v-1.86zM31.586 63.215h-1.86v1.86h1.86v-1.86zM33.447 63.215h-1.86v1.86h1.86v-1.86zM35.307 63.215h-1.86v1.86h1.86v-1.86zM39.028 63.215h-1.86v1.86h1.86v-1.86zM40.889 63.215h-1.86v1.86h1.86v-1.86zM53.912 63.215h-1.86v1.86h1.86v-1.86zM55.773 63.215h-1.86v1.86h1.86v-1.86zM59.494 63.215h-1.86v1.86h1.86v-1.86zM63.215 63.215h-1.86v1.86h1.86v-1.86zM70.657 63.215h-1.86v1.86h1.86v-1.86zM72.517 63.215h-1.86v1.86h1.86v-1.86zM78.099 63.215h-1.86v1.86h1.86v-1.86zM18.563 65.076h-1.86v1.86h1.86v-1.86zM20.423 65.076h-1.86v1.86h1.86v-1.86zM22.284 65.076h-1.86v1.86h1.86v-1.86zM24.144 65.076h-1.86v1.86h1.86v-1.86zM26.004 65.076h-1.86v1.86h1.86v-1.86zM35.307 65.076h-1.86v1.86h1.86v-1.86zM40.889 65.076h-1.86v1.86h1.86v-1.86zM42.75 65.076h-1.861v1.86h1.86v-1.86zM44.61 65.076h-1.86v1.86h1.86v-1.86zM46.47 65.076h-1.86v1.86h1.86v-1.86zM50.191 65.076h-1.86v1.86h1.86v-1.86zM53.912 65.076h-1.86v1.86h1.86v-1.86zM55.773 65.076h-1.86v1.86h1.86v-1.86zM57.633 65.076h-1.86v1.86h1.86v-1.86zM59.494 65.076h-1.86v1.86h1.86v-1.86zM61.354 65.076h-1.86v1.86h1.86v-1.86zM63.215 65.076h-1.86v1.86h1.86v-1.86zM66.936 65.076h-1.86v1.86h1.86v-1.86zM70.657 65.076h-1.86v1.86h1.86v-1.86zM74.378 65.076h-1.86v1.86h1.86v-1.86zM78.099 65.076h-1.86v1.86h1.86v-1.86zM18.563 66.936h-1.86v1.86h1.86v-1.86zM20.423 66.936h-1.86v1.86h1.86v-1.86zM22.284 66.936h-1.86v1.86h1.86v-1.86zM24.144 66.936h-1.86v1.86h1.86v-1.86zM33.447 66.936h-1.86v1.86h1.86v-1.86zM37.168 66.936h-1.86v1.86h1.86v-1.86zM42.75 66.936h-1.861v1.86h1.86v-1.86zM44.61 66.936h-1.86v1.86h1.86v-1.86zM50.191 66.936h-1.86v1.86h1.86v-1.86zM52.052 66.936h-1.86v1.86h1.86v-1.86zM53.912 66.936h-1.86v1.86h1.86v-1.86zM55.773 66.936h-1.86v1.86h1.86v-1.86zM59.494 66.936h-1.86v1.86h1.86v-1.86zM61.354 66.936h-1.86v1.86h1.86v-1.86zM63.215 66.936h-1.86v1.86h1.86v-1.86zM70.657 66.936h-1.86v1.86h1.86v-1.86zM20.423 68.796h-1.86v1.86h1.86v-1.86zM22.284 68.796h-1.86v1.86h1.86v-1.86zM31.586 68.796h-1.86v1.86h1.86v-1.86zM33.447 68.796h-1.86v1.86h1.86v-1.86zM40.889 68.796h-1.86v1.86h1.86v-1.86zM46.47 68.796h-1.86v1.86h1.86v-1.86zM52.052 68.796h-1.86v1.86h1.86v-1.86zM53.912 68.796h-1.86v1.86h1.86v-1.86zM55.773 68.796h-1.86v1.86h1.86v-1.86zM57.633 68.796h-1.86v1.86h1.86v-1.86zM59.494 68.796h-1.86v1.86h1.86v-1.86zM61.354 68.796h-1.86v1.86h1.86v-1.86zM63.215 68.796h-1.86v1.86h1.86v-1.86zM65.076 68.796h-1.86v1.86h1.86v-1.86zM66.936 68.796h-1.86v1.86h1.86v-1.86zM68.796 68.796h-1.86v1.86h1.86v-1.86zM70.657 68.796h-1.86v1.86h1.86v-1.86zM72.517 68.796h-1.86v1.86h1.86v-1.86zM78.099 68.796h-1.86v1.86h1.86v-1.86zM20.423 70.657h-1.86v1.86h1.86v-1.86zM22.284 70.657h-1.86v1.86h1.86v-1.86zM24.144 70.657h-1.86v1.86h1.86v-1.86zM26.004 70.657h-1.86v1.86h1.86v-1.86zM39.028 70.657h-1.86v1.86h1.86v-1.86zM44.61 70.657h-1.86v1.86h1.86v-1.86zM46.47 70.657h-1.86v1.86h1.86v-1.86zM48.33 70.657h-1.86v1.86h1.86v-1.86zM50.191 70.657h-1.86v1.86h1.86v-1.86zM53.912 70.657h-1.86v1.86h1.86v-1.86zM55.773 70.657h-1.86v1.86h1.86v-1.86zM59.494 70.657h-1.86v1.86h1.86v-1.86zM61.354 70.657h-1.86v1.86h1.86v-1.86zM63.215 70.657h-1.86v1.86h1.86v-1.86zM68.796 70.657h-1.86v1.86h1.86v-1.86zM70.657 70.657h-1.86v1.86h1.86v-1.86zM78.099 70.657h-1.86v1.86h1.86v-1.86zM18.563 72.518h-1.86v1.86h1.86v-1.86zM22.284 72.518h-1.86v1.86h1.86v-1.86zM26.004 72.518h-1.86v1.86h1.86v-1.86zM27.865 72.518h-1.86v1.86h1.86v-1.86zM29.726 72.518h-1.86v1.86h1.86v-1.86zM31.586 72.518h-1.86v1.86h1.86v-1.86zM35.307 72.518h-1.86v1.86h1.86v-1.86zM42.75 72.518h-1.861v1.86h1.86v-1.86zM44.61 72.518h-1.86v1.86h1.86v-1.86zM46.47 72.518h-1.86v1.86h1.86v-1.86zM52.052 72.518h-1.86v1.86h1.86v-1.86zM53.912 72.518h-1.86v1.86h1.86v-1.86zM55.773 72.518h-1.86v1.86h1.86v-1.86zM57.633 72.518h-1.86v1.86h1.86v-1.86zM63.215 72.518h-1.86v1.86h1.86v-1.86zM65.076 72.518h-1.86v1.86h1.86v-1.86zM70.657 72.518h-1.86v1.86h1.86v-1.86zM72.517 72.518h-1.86v1.86h1.86v-1.86zM74.378 72.518h-1.86v1.86h1.86v-1.86zM76.239 72.518h-1.86v1.86h1.86v-1.86zM78.099 72.518h-1.86v1.86h1.86v-1.86zM20.423 74.378h-1.86v1.86h1.86v-1.86zM27.865 74.378h-1.86v1.86h1.86v-1.86zM33.447 74.378h-1.86v1.86h1.86v-1.86zM35.307 74.378h-1.86v1.86h1.86v-1.86zM46.47 74.378h-1.86v1.86h1.86v-1.86zM48.33 74.378h-1.86v1.86h1.86v-1.86zM50.191 74.378h-1.86v1.86h1.86v-1.86zM55.773 74.378h-1.86v1.86h1.86v-1.86zM63.215 74.378h-1.86v1.86h1.86v-1.86zM65.076 74.378h-1.86v1.86h1.86v-1.86zM22.284 76.239h-1.86v1.86h1.86v-1.86zM26.004 76.239h-1.86v1.86h1.86v-1.86zM31.586 76.239h-1.86v1.86h1.86v-1.86zM35.307 76.239h-1.86v1.86h1.86v-1.86zM40.889 76.239h-1.86v1.86h1.86v-1.86zM42.75 76.239h-1.861v1.86h1.86v-1.86zM44.61 76.239h-1.86v1.86h1.86v-1.86zM52.052 76.239h-1.86v1.86h1.86v-1.86zM55.773 76.239h-1.86v1.86h1.86v-1.86zM61.354 76.239h-1.86v1.86h1.86v-1.86zM63.215 76.239h-1.86v1.86h1.86v-1.86zM65.076 76.239h-1.86v1.86h1.86v-1.86zM66.936 76.239h-1.86v1.86h1.86v-1.86zM70.657 76.239h-1.86v1.86h1.86v-1.86zM72.517 76.239h-1.86v1.86h1.86v-1.86zM74.378 76.239h-1.86v1.86h1.86v-1.86zM78.099 76.239h-1.86v1.86h1.86v-1.86zM12.888 1.818H1.818v13.023h13.023V1.818h-1.953zm0 11.07H3.772V3.772h9.116v9.116z" fill="#000"/>
    <path d="M11.12 5.539H5.54v5.582h5.582V5.539zM76.145 1.818h-11.07v13.023H78.1V1.818h-1.954zm0 11.07H67.03V3.772h9.116v9.116z" fill="#000"/>
    <path d="M74.378 5.539h-5.582v5.582h5.582V5.539zM12.888 65.076H1.818v13.023h13.023V65.076h-1.953zm0 11.07H3.772v-9.117h9.116v9.117z" fill="#000"/>
    <path d="M11.12 68.796H5.54v5.582h5.582v-5.582z" fill="#000"/>
    <path d="M40 27.273A12.727 12.727 0 0 1 52.727 40 12.727 12.727 0 0 1 40 52.727 12.728 12.728 0 0 1 27.273 40 12.728 12.728 0 0 1 40 27.273z" fill="#fff"/>
    <path d="M44.705 43.704 43.7 44.711l1.13 1.133a.71.71 0 1 0 1.005-1.006l-1.131-1.134z" fill="#007AFF"/>
    <path d="m42.609 43.606-.205-.205a4.174 4.174 0 0 1-6.58-3.418 4.065 4.065 0 0 1 .146-1.09 4.173 4.173 0 1 1 7.428 3.52l1.297 1.299c2.378-2.638 2.216-5.28-.488-7.923-2.797-2.872-5.614-2.872-8.422-.01-2.865 2.813-2.865 5.623 0 8.431 2.526 2.569 5.05 2.843 7.574.791.117-.088.225-.185.342-.29l-1.083-1.085-.01-.02z" fill="#007AFF"/>
    <path d="M38.154 39.543c.18-.307.404-.587.663-.83.225-.205.477-.377.751-.51a.332.332 0 0 0 .145-.419.297.297 0 0 0-.4-.145 3.9 3.9 0 0 0-1.687 1.593.317.317 0 0 0 .108.43.334.334 0 0 0 .137.048.316.316 0 0 0 .283-.167zM38.028 42.249a1.572 1.572 0 0 0 1.082.557c.75.068 1.579-.332 2.466-1.202.887-.869 1.316-1.69 1.267-2.443a1.568 1.568 0 0 0-.527-1.09l-.155-.166c-.291-.291-.556-.088-.809.244l-.156.195c-.253.332-.4.665-.107.958l.175.175c.127.127.692.352-.38 1.397-1.072 1.065-1.278.489-1.404.364l-.175-.176c-.291-.291-.624-.157-.965.088l-.205.145c-.342.245-.555.51-.263.8l.156.154z" fill="#007AFF"/>
</svg>
